<?xml version="1.0" encoding="UTF-8" standalone="no"?>
<svg
   xmlns:dc="http://purl.org/dc/elements/1.1/"
   xmlns:cc="http://creativecommons.org/ns#"
   xmlns:rdf="http://www.w3.org/1999/02/22-rdf-syntax-ns#"
   xmlns:svg="http://www.w3.org/2000/svg"
   xmlns="http://www.w3.org/2000/svg"
   xmlns:sodipodi="http://sodipodi.sourceforge.net/DTD/sodipodi-0.dtd"
   xmlns:inkscape="http://www.inkscape.org/namespaces/inkscape"
   viewBox="0 0 576 512"
   version="1.1"
   id="svg4"
   sodipodi:docname="newspaper.svg"
   inkscape:version="0.92.1 r15371">
  <metadata
     id="metadata10">
    <rdf:RDF>
      <cc:Work
         rdf:about="">
        <dc:format>image/svg+xml</dc:format>
        <dc:type
           rdf:resource="http://purl.org/dc/dcmitype/StillImage" />
      </cc:Work>
    </rdf:RDF>
  </metadata>
  <defs
     id="defs8" />
  <sodipodi:namedview
     pagecolor="#ffffff"
     bordercolor="#666666"
     borderopacity="1"
     objecttolerance="10"
     gridtolerance="10"
     guidetolerance="10"
     inkscape:pageopacity="0"
     inkscape:pageshadow="2"
     inkscape:window-width="1356"
     inkscape:window-height="729"
     id="namedview6"
     showgrid="false"
     inkscape:zoom="0.4609375"
     inkscape:cx="-11.389831"
     inkscape:cy="256"
     inkscape:window-x="0"
     inkscape:window-y="18"
     inkscape:window-maximized="0"
     inkscape:current-layer="svg4" />
  <path
     d="M 552,126.91525 H 88 c -13.255,0 -24,10.745 -24,24 v 8 H 24 c -13.255,0 -24,10.745 -24,24 v 272 c 0,30.928 25.072,56 56,56 h 472 c 26.51,0 48,-21.49 48,-48 v -312 c 0,-13.255 -10.745,-24 -24,-24 z m -496,336 a 8,8 0 0 1 -8,-8 v -248 h 16 v 248 a 8,8 0 0 1 -8,8 z m 236,-16 H 140 c -6.627,0 -12,-5.373 -12,-12 v -8 c 0,-6.627 5.373,-12 12,-12 h 152 c 6.627,0 12,5.373 12,12 v 8 c 0,6.627 -5.373,12 -12,12 z m 208,0 H 348 c -6.627,0 -12,-5.373 -12,-12 v -8 c 0,-6.627 5.373,-12 12,-12 h 152 c 6.627,0 12,5.373 12,12 v 8 c 0,6.627 -5.373,12 -12,12 z m -208,-96 H 140 c -6.627,0 -12,-5.373 -12,-12 v -8 c 0,-6.627 5.373,-12 12,-12 h 152 c 6.627,0 12,5.373 12,12 v 8 c 0,6.627 -5.373,12 -12,12 z m 208,0 H 348 c -6.627,0 -12,-5.373 -12,-12 v -8 c 0,-6.627 5.373,-12 12,-12 h 152 c 6.627,0 12,5.373 12,12 v 8 c 0,6.627 -5.373,12 -12,12 z m 0,-96 H 140 c -6.627,0 -12,-5.373 -12,-12 v -40 c 0,-6.627 5.373,-12 12,-12 h 360 c 6.627,0 12,5.373 12,12 v 40 c 0,6.627 -5.373,12 -12,12 z"
     id="path2"
     inkscape:connector-curvature="0" />
</svg>
